# xmcd
#
# Track frame offsets:
#	150
#	15223
#	35089
#	55619
#	76826
#	97691
#	111780
#	128193
#	142871
#	162970
#
# Disc length: 2374 seconds
#
# Revision: 1
# Processed by: cddbd v1.5.1PL2 Copyright (c) Steve Scherf et al.
# Submitted via: audiograbber 1.83.01
#
DISCID=6909440a
DTITLE=The Price of Blues - UNC Sessions
DYEAR=1900
DGENRE=Blues
TTITLE0=One False Move
TTITLE1=Borrowed Shoes
TTITLE2=Cyberspace
TTITLE3=Dim Room Blues
TTITLE4=Going Home
TTITLE5=Make Believe
TTITLE6=Movin' On
TTITLE7=Poets Ride
TTITLE8=Sunshiny Morning
TTITLE9=Tribute
EXTD=
EXTT0=
EXTT1=
EXTT2=
EXTT3=
EXTT4=
EXTT5=
EXTT6=
EXTT7=
EXTT8=
EXTT9=
PLAYORDER=
